# xmcd
#
# Track frame offsets:
#  150
#  3832
#  14887
#  24799
#  38763
#  50730
#  63497
#  79837
#  93953
#  106083
#  117826
#  134169
#
# Disc length: 1945 seconds
#
# Revision: 0
# Processed by: cddbd v1.5.2PL0 Copyright (c) Steve Scherf et al.
# Submitted via: Collectorz.com Music Collector 6.9
#
DISCID=9607970c
DTITLE=Johnny Cash - The Gospel Music Of [CD2]
DYEAR=2008
DGENRE=Christian Country
TTITLE0=I Won't Have To Cross Jordan Alone
TTITLE1=The Old Account Was Settled Long Ago (Live)
TTITLE2=Far Side Banks Of Jordan
TTITLE3=Farther Along (Live)
TTITLE4=Matthew 24 (Is Knocking At The Door) (Live)
TTITLE5=Ragged Old Flag (Live)
TTITLE6=Were You There (When They Crucified My Lord) (Live)
TTITLE7=It Is No Secret (Live)
TTITLE8=Angel Band
TTITLE9=My Children Walk In Truth (Live)
TTITLE10=In The Sweet By And By (Live)
TTITLE11=God's Hands
EXTD=
EXTT0=
EXTT1=
EXTT2=
EXTT3=
EXTT4=
EXTT5=
EXTT6=
EXTT7=
EXTT8=
EXTT9=
EXTT10=
EXTT11=
PLAYORDER=
